<svg width="180" height="160" viewBox="0 0 180 160" fill="none" xmlns="http://www.w3.org/2000/svg">
<path fill-rule="evenodd" clip-rule="evenodd" d="M7.5 0C3.34375 0 0 3.34375 0 7.5C0 11.6563 3.34375 15 7.5 15H21.7188C22.9375 15 23.9688 15.8438 24.1875 17.0312L40.3125 101.719C42.3125 112.313 51.5937 120 62.4062 120H152.5C156.656 120 160 116.656 160 112.5C160 108.344 156.656 105 152.5 105H62.4062C58.8125 105 55.7188 102.438 55.0313 98.9062L53.3437 90H143.5C153.656 90 162.563 83.1562 165.219 73.3437L178.031 25.75C180.188 17.8125 174.187 10 165.969 10H37.5312C34.6875 4 28.5938 0 21.7188 0H7.5ZM41.1418 139.26C40.388 141.08 40 143.03 40 145C40 146.97 40.388 148.92 41.1418 150.74C41.8956 152.56 43.0005 154.214 44.3934 155.607C45.7863 156.999 47.4399 158.104 49.2597 158.858C51.0796 159.612 53.0302 160 55 160C56.9698 160 58.9204 159.612 60.7403 158.858C62.5601 158.104 64.2137 156.999 65.6066 155.607C66.9995 154.214 68.1044 152.56 68.8582 150.74C69.612 148.92 70 146.97 70 145C70 143.03 69.612 141.08 68.8582 139.26C68.1044 137.44 66.9995 135.786 65.6066 134.393C64.2137 133.001 62.5601 131.896 60.7403 131.142C58.9204 130.388 56.9698 130 55 130C53.0302 130 51.0796 130.388 49.2597 131.142C47.4399 131.896 45.7863 133.001 44.3934 134.393C43.0005 135.786 41.8956 137.44 41.1418 139.26ZM155.607 134.393C152.794 131.58 148.978 130 145 130C141.022 130 137.206 131.58 134.393 134.393C131.58 137.206 130 141.022 130 145C130 148.978 131.58 152.794 134.393 155.607C137.206 158.42 141.022 160 145 160C148.978 160 152.794 158.42 155.607 155.607C158.42 152.794 160 148.978 160 145C160 141.022 158.42 137.206 155.607 134.393ZM40.6443 25.75H153.119C158.356 25.75 162.18 30.6981 160.861 35.7659L154.247 61.1668C151.838 70.4182 143.484 76.875 133.924 76.875H50.7495L40.6443 25.75Z" fill="white"/>
</svg>
