<svg width="85" height="85" viewBox="0 0 85 85" fill="none" xmlns="http://www.w3.org/2000/svg">
<g clip-path="url(#clip0_715_115)">
<circle cx="42.5" cy="42.5" r="42.5" fill="#F2CF8D"/>
<path d="M26.25 37.25V43.75H58.75V37.25C58.75 33.6648 61.6648 30.75 65.25 30.75H68.5C68.5 25.3672 64.1328 21 58.75 21H26.25C20.8672 21 16.5 25.3672 16.5 30.75H19.75C23.3352 30.75 26.25 33.6648 26.25 37.25ZM68.5 34H65.25C63.4523 34 62 35.4523 62 37.25V47H23V37.25C23 35.4523 21.5477 34 19.75 34H16.5C12.9148 34 10 36.9148 10 40.5C10 42.8969 11.3203 44.9688 13.25 46.0961V58.375C13.25 59.2688 13.9812 60 14.875 60H21.375C22.2688 60 23 59.2688 23 58.375V56.75H62V58.375C62 59.2688 62.7312 60 63.625 60H70.125C71.0188 60 71.75 59.2688 71.75 58.375V46.0961C73.6797 44.9688 75 42.8969 75 40.5C75 36.9148 72.0852 34 68.5 34Z" fill="black"/>
</g>
<defs>
<clipPath id="clip0_715_115">
<rect width="85" height="85" fill="white"/>
</clipPath>
</defs>
</svg>
