<svg width="146" height="21" viewBox="0 0 146 21" fill="none" xmlns="http://www.w3.org/2000/svg">
<path d="M13.224 16.564H3.516L2.724 18.496C2.66 18.656 2.572 18.78 2.46 18.868C2.356 18.956 2.22 19 2.052 19H1.164C0.972 19 0.844 18.96 0.78 18.88C0.716 18.8 0.684 18.708 0.684 18.604C0.684 18.54 0.692 18.48 0.708 18.424C0.724 18.36 0.74 18.308 0.756 18.268L8.016 0.904C8.04 0.84 8.08 0.771999 8.136 0.699999C8.192 0.619999 8.276 0.579999 8.388 0.579999C8.484 0.579999 8.56 0.611999 8.616 0.675999C8.672 0.731999 8.72 0.807999 8.76 0.904L16.02 18.352C16.036 18.36 16.048 18.4 16.056 18.472C16.064 18.536 16.068 18.584 16.068 18.616C16.068 18.872 15.908 19 15.588 19H14.688C14.528 19 14.392 18.956 14.28 18.868C14.168 18.78 14.084 18.668 14.028 18.532L13.224 16.564ZM4.32 14.608H12.42L8.424 4.828C8.416 4.82 8.412 4.812 8.412 4.804C8.396 4.788 8.388 4.78 8.388 4.78C8.364 4.78 8.348 4.796 8.34 4.828L4.32 14.608ZM25.2778 1.192C26.2378 1.192 27.1378 1.376 27.9778 1.744C28.8258 2.104 29.5618 2.6 30.1858 3.232C30.8178 3.856 31.3138 4.592 31.6738 5.44C32.0418 6.28 32.2258 7.18 32.2258 8.14C32.2258 8.732 32.1538 9.3 32.0098 9.844C31.8738 10.388 31.6738 10.904 31.4098 11.392C31.1538 11.872 30.8418 12.32 30.4738 12.736C30.1138 13.144 29.7098 13.504 29.2618 13.816L31.4578 18.472C31.4818 18.536 31.4938 18.588 31.4938 18.628C31.4938 18.74 31.4498 18.832 31.3618 18.904C31.2738 18.968 31.1658 19 31.0378 19H30.0418C29.8898 19 29.7618 18.96 29.6578 18.88C29.5538 18.792 29.4698 18.676 29.4058 18.532L27.6298 14.656C26.8778 14.928 26.0938 15.064 25.2778 15.064H20.6578V18.472C20.6578 18.824 20.4738 19 20.1058 19H19.2298C18.8778 19 18.7018 18.824 18.7018 18.472V1.768C18.7018 1.584 18.7498 1.444 18.8458 1.348C18.9498 1.244 19.0818 1.192 19.2418 1.192H25.2778ZM20.6578 13.132H25.2778C25.9738 13.132 26.6258 13.004 27.2338 12.748C27.8418 12.484 28.3698 12.128 28.8178 11.68C29.2738 11.224 29.6338 10.692 29.8978 10.084C30.1618 9.476 30.2938 8.828 30.2938 8.14C30.2938 7.444 30.1618 6.792 29.8978 6.184C29.6338 5.576 29.2738 5.048 28.8178 4.6C28.3698 4.144 27.8418 3.784 27.2338 3.52C26.6258 3.256 25.9738 3.124 25.2778 3.124H20.6578V13.132ZM49.1619 17.416C48.3539 17.992 47.4899 18.444 46.5699 18.772C45.6579 19.092 44.6939 19.252 43.6779 19.252C42.8299 19.252 42.0139 19.144 41.2299 18.928C40.4539 18.704 39.7259 18.396 39.0459 18.004C38.3659 17.604 37.7459 17.124 37.1859 16.564C36.6339 16.004 36.1579 15.388 35.7579 14.716C35.3579 14.036 35.0499 13.308 34.8339 12.532C34.6179 11.748 34.5099 10.936 34.5099 10.096C34.5099 9.256 34.6179 8.448 34.8339 7.672C35.0499 6.888 35.3579 6.16 35.7579 5.488C36.1579 4.808 36.6339 4.188 37.1859 3.628C37.7459 3.068 38.3659 2.592 39.0459 2.2C39.7259 1.8 40.4539 1.492 41.2299 1.276C42.0139 1.052 42.8299 0.939999 43.6779 0.939999C44.6939 0.939999 45.6579 1.104 46.5699 1.432C47.4899 1.752 48.3539 2.2 49.1619 2.776C49.3379 2.904 49.4259 3.052 49.4259 3.22C49.4259 3.3 49.4059 3.372 49.3659 3.436C49.3339 3.492 49.2979 3.552 49.2579 3.616L48.8739 4.264C48.8259 4.344 48.7619 4.408 48.6819 4.456C48.6099 4.496 48.5419 4.516 48.4779 4.516C48.4379 4.516 48.3739 4.508 48.2859 4.492C48.1979 4.468 48.1019 4.42 47.9979 4.348C47.3819 3.9 46.7259 3.552 46.0299 3.304C45.3419 3.048 44.6219 2.92 43.8699 2.92C43.1659 2.92 42.4939 3.008 41.8539 3.184C41.2139 3.36 40.6179 3.608 40.0659 3.928C39.5219 4.248 39.0259 4.628 38.5779 5.068C38.1299 5.508 37.7459 5.992 37.4259 6.52C37.1139 7.048 36.8699 7.612 36.6939 8.212C36.5259 8.812 36.4419 9.428 36.4419 10.06C36.4419 11.02 36.6299 11.936 37.0059 12.808C37.3819 13.68 37.9019 14.448 38.5659 15.112C39.2299 15.768 40.0139 16.292 40.9179 16.684C41.8299 17.076 42.8139 17.272 43.8699 17.272C44.6219 17.272 45.3419 17.148 46.0299 16.9C46.7179 16.644 47.3739 16.292 47.9979 15.844C48.1019 15.772 48.1979 15.728 48.2859 15.712C48.3739 15.688 48.4379 15.676 48.4779 15.676C48.5419 15.676 48.6099 15.7 48.6819 15.748C48.7619 15.788 48.8259 15.848 48.8739 15.928L49.2579 16.576C49.2979 16.64 49.3339 16.704 49.3659 16.768C49.4059 16.824 49.4259 16.892 49.4259 16.972C49.4259 17.14 49.3379 17.288 49.1619 17.416ZM65.0094 1.708C65.0094 1.564 65.0574 1.44 65.1534 1.336C65.2494 1.232 65.3774 1.18 65.5374 1.18H66.3894C66.5334 1.18 66.6654 1.228 66.7854 1.324C66.9054 1.42 66.9654 1.548 66.9654 1.708V18.472C66.9654 18.824 66.7734 19 66.3894 19H65.5374C65.1854 19 65.0094 18.824 65.0094 18.472V13.132H54.1734V18.472C54.1734 18.824 53.9814 19 53.5974 19H52.7454C52.3934 19 52.2174 18.824 52.2174 18.472V1.708C52.2174 1.564 52.2654 1.44 52.3614 1.336C52.4574 1.232 52.5854 1.18 52.7454 1.18H53.6094C53.7614 1.18 53.8934 1.232 54.0054 1.336C54.1174 1.432 54.1734 1.556 54.1734 1.708V11.176H65.0094V1.708ZM70.8268 1.708C70.8268 1.564 70.8708 1.44 70.9588 1.336C71.0468 1.232 71.1788 1.18 71.3548 1.18H72.2188C72.3628 1.18 72.4908 1.228 72.6028 1.324C72.7148 1.42 72.7708 1.548 72.7708 1.708V18.46C72.7708 18.82 72.5868 19 72.2188 19H71.3548C71.0028 19 70.8268 18.82 70.8268 18.46V1.708ZM81.2828 1.18C81.9308 1.18 82.5588 1.264 83.1668 1.432C83.7748 1.6 84.3468 1.84 84.8828 2.152C85.4268 2.456 85.9188 2.824 86.3588 3.256C86.8068 3.688 87.1908 4.172 87.5108 4.708C87.8388 5.244 88.0908 5.824 88.2668 6.448C88.4428 7.064 88.5308 7.712 88.5308 8.392C88.5308 9.376 88.3388 10.308 87.9548 11.188C87.5788 12.068 87.0628 12.836 86.4068 13.492C85.7508 14.148 84.9828 14.668 84.1028 15.052C83.2228 15.436 82.2828 15.628 81.2828 15.628H78.5948V18.46C78.5948 18.82 78.4148 19 78.0548 19H77.1788C76.8268 19 76.6508 18.82 76.6508 18.46V1.744C76.6508 1.368 76.8348 1.18 77.2028 1.18H81.2828ZM78.5948 13.684H81.2948C81.9988 13.684 82.6708 13.552 83.3108 13.288C83.9508 13.016 84.5148 12.644 85.0028 12.172C85.4908 11.692 85.8788 11.132 86.1668 10.492C86.4548 9.844 86.5988 9.144 86.5988 8.392C86.5988 7.64 86.4548 6.944 86.1668 6.304C85.8788 5.656 85.4828 5.096 84.9788 4.624C84.4828 4.144 83.8988 3.768 83.2268 3.496C82.5628 3.224 81.8548 3.088 81.1028 3.088H78.5948V13.684ZM97.9809 1.192C98.9409 1.192 99.8409 1.376 100.681 1.744C101.529 2.104 102.265 2.6 102.889 3.232C103.521 3.856 104.017 4.592 104.377 5.44C104.745 6.28 104.929 7.18 104.929 8.14C104.929 8.732 104.857 9.3 104.713 9.844C104.577 10.388 104.377 10.904 104.113 11.392C103.857 11.872 103.545 12.32 103.177 12.736C102.817 13.144 102.413 13.504 101.965 13.816L104.161 18.472C104.185 18.536 104.197 18.588 104.197 18.628C104.197 18.74 104.153 18.832 104.065 18.904C103.977 18.968 103.869 19 103.741 19H102.745C102.593 19 102.465 18.96 102.361 18.88C102.257 18.792 102.173 18.676 102.109 18.532L100.333 14.656C99.5809 14.928 98.7969 15.064 97.9809 15.064H93.3609V18.472C93.3609 18.824 93.1769 19 92.8089 19H91.9329C91.5809 19 91.4049 18.824 91.4049 18.472V1.768C91.4049 1.584 91.4529 1.444 91.5489 1.348C91.6529 1.244 91.7849 1.192 91.9449 1.192H97.9809ZM93.3609 13.132H97.9809C98.6769 13.132 99.3289 13.004 99.9369 12.748C100.545 12.484 101.073 12.128 101.521 11.68C101.977 11.224 102.337 10.692 102.601 10.084C102.865 9.476 102.997 8.828 102.997 8.14C102.997 7.444 102.865 6.792 102.601 6.184C102.337 5.576 101.977 5.048 101.521 4.6C101.073 4.144 100.545 3.784 99.9369 3.52C99.3289 3.256 98.6769 3.124 97.9809 3.124H93.3609V13.132ZM107.225 10.108C107.225 9.268 107.333 8.456 107.549 7.672C107.773 6.888 108.081 6.156 108.473 5.476C108.873 4.796 109.349 4.18 109.901 3.628C110.461 3.068 111.081 2.592 111.761 2.2C112.441 1.8 113.169 1.492 113.945 1.276C114.729 1.052 115.545 0.939999 116.393 0.939999C117.233 0.939999 118.041 1.052 118.817 1.276C119.601 1.492 120.333 1.8 121.013 2.2C121.693 2.592 122.309 3.068 122.861 3.628C123.421 4.18 123.897 4.796 124.289 5.476C124.689 6.156 124.997 6.888 125.213 7.672C125.437 8.456 125.549 9.268 125.549 10.108C125.549 10.948 125.437 11.76 125.213 12.544C124.997 13.32 124.689 14.048 124.289 14.728C123.897 15.408 123.421 16.028 122.861 16.588C122.309 17.14 121.693 17.616 121.013 18.016C120.333 18.408 119.601 18.716 118.817 18.94C118.041 19.156 117.233 19.264 116.393 19.264C115.553 19.264 114.741 19.156 113.957 18.94C113.173 18.716 112.441 18.408 111.761 18.016C111.081 17.616 110.461 17.14 109.901 16.588C109.349 16.028 108.873 15.408 108.473 14.728C108.081 14.048 107.773 13.32 107.549 12.544C107.333 11.76 107.225 10.948 107.225 10.108ZM109.169 10.108C109.169 11.108 109.357 12.044 109.733 12.916C110.109 13.788 110.625 14.552 111.281 15.208C111.937 15.864 112.701 16.38 113.573 16.756C114.453 17.132 115.393 17.32 116.393 17.32C117.385 17.32 118.317 17.132 119.189 16.756C120.069 16.38 120.833 15.864 121.481 15.208C122.137 14.552 122.653 13.788 123.029 12.916C123.413 12.044 123.605 11.108 123.605 10.108C123.605 9.116 123.413 8.18 123.029 7.3C122.653 6.42 122.137 5.656 121.481 5.008C120.833 4.352 120.069 3.836 119.189 3.46C118.317 3.076 117.385 2.884 116.393 2.884C115.729 2.884 115.089 2.972 114.473 3.148C113.857 3.316 113.281 3.56 112.745 3.88C112.209 4.192 111.721 4.568 111.281 5.008C110.841 5.44 110.465 5.924 110.153 6.46C109.841 6.996 109.597 7.572 109.421 8.188C109.253 8.804 109.169 9.444 109.169 10.108ZM128.424 1.768C128.424 1.584 128.472 1.444 128.568 1.348C128.672 1.244 128.808 1.192 128.976 1.192H134.616C135.448 1.192 136.244 1.3 137.004 1.516C137.772 1.724 138.484 2.02 139.14 2.404C139.804 2.788 140.404 3.252 140.94 3.796C141.476 4.332 141.936 4.932 142.32 5.596C142.704 6.252 143 6.964 143.208 7.732C143.416 8.492 143.52 9.284 143.52 10.108C143.52 10.924 143.412 11.712 143.196 12.472C142.988 13.232 142.692 13.94 142.308 14.596C141.924 15.252 141.46 15.852 140.916 16.396C140.372 16.94 139.772 17.404 139.116 17.788C138.46 18.172 137.752 18.472 136.992 18.688C136.232 18.896 135.44 19 134.616 19H128.976C128.824 19 128.692 18.96 128.58 18.88C128.476 18.8 128.424 18.668 128.424 18.484V1.768ZM134.532 17.068C135.22 17.068 135.868 16.98 136.476 16.804C137.092 16.628 137.664 16.384 138.192 16.072C138.72 15.76 139.192 15.384 139.608 14.944C140.032 14.504 140.392 14.024 140.688 13.504C140.984 12.976 141.212 12.412 141.372 11.812C141.532 11.212 141.612 10.592 141.612 9.952C141.612 8.92 141.42 7.984 141.036 7.144C140.66 6.296 140.152 5.576 139.512 4.984C138.872 4.384 138.128 3.92 137.28 3.592C136.432 3.264 135.54 3.1 134.604 3.1H130.38V17.068H134.532Z" fill="white"/>
</svg>
